<svg width="10" height="10" viewBox="0 0 10 10" fill="none" xmlns="http://www.w3.org/2000/svg">
<path fill-rule="evenodd" clip-rule="evenodd" d="M0.195262 0.195018C0.455612 -0.0653314 0.877722 -0.0653314 1.13807 0.195018L4.66667 3.72361L8.19526 0.195018C8.45561 -0.0653315 8.87772 -0.0653315 9.13807 0.195018C9.39842 0.455368 9.39842 0.877478 9.13807 1.13783L5.60948 4.66642L9.13807 8.19502C9.39842 8.45537 9.39842 8.87748 9.13807 9.13783C8.87772 9.39818 8.45561 9.39818 8.19526 9.13783L4.66667 5.60923L1.13807 9.13783C0.877722 9.39818 0.455612 9.39818 0.195262 9.13783C-0.0650873 8.87748 -0.0650873 8.45537 0.195262 8.19502L3.72386 4.66642L0.195262 1.13783C-0.0650874 0.877478 -0.0650874 0.455368 0.195262 0.195018Z" fill="#23262F"/>
</svg>
